# xmcd
#
# Track frame offsets: 
#        150
#        18560
#        43157
#        60827
#        79192
#        105837
#        131305
#        151552
#        175280
#        191552
#
# Disc length: 2745 seconds
#
# Revision: 0
# Processed by: cddbd v1.5.2PL0 Copyright (c) Steve Scherf et al.
# Submitted via: ExactAudioCopy v0.95b4
#
DISCID=6c0ab70a
DTITLE=al jarreau - l is for lover
DYEAR=1986
DGENRE=Blues
TTITLE0=tell me what i gotta do
TTITLE1=l is for lover
TTITLE2=says
TTITLE3=pleasure
TTITLE4=golden girl
TTITLE5=across the midnight sky
TTITLE6=(we got) telepathy
TTITLE7=give a little more lovin'
TTITLE8=no ordinary romance
TTITLE9=real tight
EXTD=
EXTT0=
EXTT1=
EXTT2=
EXTT3=
EXTT4=
EXTT5=
EXTT6=
EXTT7=
EXTT8=
EXTT9=
PLAYORDER=
